<svg width="50" height="50" viewBox="0 0 50 50" fill="none" xmlns="http://www.w3.org/2000/svg">
<path d="M1.5625 25C1.5625 29.6094 2.89062 33.9063 5.15625 37.5H44.7656C47.0312 33.9063 48.3594 29.6094 48.3594 25C48.3594 20.3906 47.0312 16.0937 44.7656 12.5H5.15625C2.89062 16.0937 1.5625 20.3906 1.5625 25Z" fill="#FFCE31"/>
<path d="M44.8438 12.5C40.7031 5.9375 33.3594 1.5625 25 1.5625C16.6406 1.5625 9.29688 5.9375 5.15625 12.5H44.8438ZM5.15625 37.5C9.29688 44.0625 16.6406 48.4375 25 48.4375C33.3594 48.4375 40.7031 44.0625 44.8438 37.5H5.15625Z" fill="#ED4C5C"/>
<path d="M7.1875 22.4219H9.6875V23.8281H7.1875V22.4219ZM7.1875 32.7344H9.76563V34.0625H7.1875V32.7344Z" fill="#C8B100"/>
<path d="M6.95313 30.5469C6.71875 30.7031 6.5625 30.8594 6.5625 30.9375C6.5625 31.0156 6.64063 31.0938 6.79688 31.1719C6.95313 31.25 7.10938 31.4063 7.03125 31.5625C7.1875 31.4063 7.26563 31.25 7.26563 31.0938C7.26563 30.8594 7.10938 30.625 6.95313 30.5469Z" fill="#ED4C5C"/>
<path d="M7.57812 23.8281H9.375V32.7344H7.57812V23.8281Z" fill="white"/>
<path d="M11.2502 27.1094C10.8595 26.9531 10.1564 26.7969 9.37516 26.7969C9.14078 26.7969 8.82828 26.7969 8.51578 26.875C7.42203 27.0313 6.56266 27.5 6.64078 27.8125L6.25016 26.9531C6.17203 26.5625 7.10953 26.0937 8.28141 25.8594C8.67203 25.7812 9.06266 25.7812 9.37516 25.7812C10.1564 25.7812 10.8595 25.8594 11.2502 26.0156V27.1094Z" fill="#ED4C5C"/>
<path d="M7.57812 28.2813C7.10937 28.2813 6.71875 28.125 6.71875 27.8906C6.71875 27.7344 6.875 27.5 7.1875 27.3438H7.65625L7.57812 28.2813ZM9.375 27.5781C9.6875 27.6562 9.92187 27.7344 10.0781 27.8125C10.1562 27.8906 9.84375 28.2031 9.375 28.4375V27.5781Z" fill="#ED4C5C"/>
<path d="M6.40637 30C6.32824 29.8438 6.87512 29.5313 7.57824 29.2969C7.89074 29.2188 8.12512 29.0625 8.51574 28.9063C9.45324 28.5156 10.2345 27.9688 10.0782 27.8125L10.2345 28.75C10.3126 28.9063 9.68762 29.375 8.75012 29.8438C8.43762 30 7.89074 30.2344 7.57824 30.3125C7.03137 30.4688 6.56262 30.7813 6.56262 30.8594L6.40637 30Z" fill="#ED4C5C"/>
<path d="M23.9844 22.4219H26.4844V23.8281H23.9844V22.4219ZM23.9062 32.7344H26.4844V34.0625H23.9062V32.7344Z" fill="#C8B100"/>
<path d="M26.7188 30.5469C26.9531 30.7031 27.1094 30.8594 27.1094 30.9375C27.1094 31.0156 27.0313 31.0938 26.875 31.1719C26.7188 31.3281 26.5625 31.5625 26.6406 31.6406C26.4844 31.4844 26.4062 31.3281 26.4062 31.1719C26.4062 30.8594 26.5625 30.625 26.7188 30.5469Z" fill="#ED4C5C"/>
<path d="M24.2969 23.8281H26.0938V32.7344H24.2969V23.8281Z" fill="white"/>
<path d="M22.4219 27.1094C22.8125 26.9531 23.5156 26.7969 24.2969 26.7969C24.5312 26.7969 24.8437 26.7969 25.1562 26.875C26.25 27.0313 27.1094 27.5 27.0312 27.8125L27.4219 26.875C27.5 26.4844 26.5625 26.0156 25.3906 25.7812H24.2969C23.5156 25.7812 22.8125 25.8594 22.4219 26.0156V27.1094Z" fill="#ED4C5C"/>
<path d="M26.0935 28.2813C26.5623 28.2813 26.9529 28.125 26.9529 27.8906C26.9529 27.7344 26.7966 27.5 26.4841 27.3438H26.0154L26.0935 28.2813ZM24.2966 27.5781C23.9841 27.6562 23.7498 27.7344 23.5935 27.8125C23.5154 27.8906 23.8279 28.2031 24.2966 28.4375V27.5781Z" fill="#ED4C5C"/>
<path d="M27.2656 30C27.3438 29.8438 26.7969 29.5313 26.0938 29.2969C25.7813 29.2188 25.5469 29.0625 25.1563 28.9063C24.2188 28.5156 23.4375 27.9687 23.5937 27.8125L23.4375 28.75C23.3594 28.9063 23.9844 29.375 24.9219 29.8438C25.2344 30 25.7813 30.2344 26.0938 30.3125C26.6406 30.4688 27.1094 30.8594 27.0312 30.9375L27.2656 30ZM16.7969 17.4219C18.2812 17.4219 21.3281 17.7344 22.4219 18.8281C21.25 21.6406 19.375 20.4688 16.7969 20.4688C14.2969 20.4688 12.3437 21.6406 11.1719 18.8281C12.2656 17.7344 15.2344 17.4219 16.7969 17.4219Z" fill="#ED4C5C"/>
<path d="M20.625 20.5469C19.6875 20 18.2813 19.9219 16.7969 19.9219C15.3125 19.9219 13.9063 20.0781 12.9688 20.5469L13.2813 21.875C14.1406 22.1094 15.3906 22.2656 16.7969 22.2656C18.2031 22.2656 19.375 22.1094 20.3125 21.875L20.625 20.5469ZM21.9531 17.1875C21.6406 16.9531 21.0156 16.7187 20.4688 16.7187C20.2344 16.7187 20 16.7187 19.7656 16.7969C19.7656 16.7969 19.2969 16.1719 18.2031 16.1719C17.8125 16.1719 17.5 16.25 17.1875 16.4062V16.3281C17.1094 16.1719 16.9531 16.0156 16.7969 16.0156C16.6406 16.0156 16.4063 16.25 16.4063 16.4062V16.4844C16.0938 16.3281 15.7813 16.25 15.3906 16.25C14.2969 16.25 13.8281 16.9531 13.8281 16.875C13.5938 16.7969 13.3594 16.7969 13.125 16.7969C9.53125 16.7969 11.3281 19.2188 11.3281 19.2188L11.7188 18.75C10.8594 17.6563 11.6406 17.0312 13.2031 17.0312C13.4375 17.0312 13.5938 17.0312 13.75 17.1094C13.2031 17.8906 14.2188 18.5937 14.2188 18.5937L14.4531 18.2031C13.9063 17.8125 13.8281 16.4844 15.3906 16.4844C15.7813 16.4844 16.0938 16.5625 16.4063 16.7969C16.4063 16.875 16.3281 17.9688 16.25 18.125L16.875 18.6719L17.5 18.125C17.4219 17.8906 17.3438 16.875 17.3438 16.7969C17.5781 16.6406 17.9688 16.4844 18.3594 16.4844C20 16.4844 20 17.8125 19.2969 18.2031L19.5313 18.5937C19.5313 18.5937 20.3906 17.8906 20 17.1094C20.1563 17.1094 20.3906 17.0312 20.5469 17.0312C22.4219 17.0312 22.5 18.4375 22.0313 18.75L22.3438 19.2188C22.1875 19.2188 23.0469 18.125 21.9531 17.1875Z" fill="#C8B100"/>
<path d="M16.3281 15.7031C16.3281 15.4688 16.5625 15.2344 16.7969 15.2344C17.1094 15.2344 17.2656 15.4688 17.2656 15.7031C17.2656 15.9375 17.0313 16.1719 16.7969 16.1719C16.5625 16.1719 16.3281 15.9375 16.3281 15.7031Z" fill="#005BBF"/>
<path d="M16.6406 14.375V14.6094H16.4063V14.8438H16.6406V15.625H16.3281V15.8594H17.2656L17.3438 15.7031L17.2656 15.625H16.9531V14.8438H17.1875V14.6094H16.9531V14.375H16.6406Z" fill="#C8B100"/>
<path d="M16.7969 22.1094C15.5469 22.1094 14.4531 21.9531 13.5938 21.7188C14.4531 21.4844 15.5469 21.3281 16.7969 21.3281C18.0469 21.3281 19.1406 21.4844 20 21.7188C19.2188 21.9531 18.0469 22.1094 16.7969 22.1094Z" fill="#ED4C5C"/>
<path d="M16.875 35.625C15.3906 35.625 13.9844 35.2344 12.7344 34.6875C11.7969 34.2188 11.25 33.3594 11.25 32.3438V28.5937H22.5V32.3438C22.5 33.3594 21.875 34.2969 21.0156 34.6875C19.7656 35.3125 18.3594 35.625 16.875 35.625ZM16.7969 22.3438H22.4219V28.5937H16.7969V22.3438Z" fill="white"/>
<path d="M16.875 32.3438C16.875 33.8281 15.625 35 14.0625 35C12.5 35 11.25 33.8281 11.25 32.3438V28.5938H16.875V32.3438Z" fill="#ED4C5C"/>
<path d="M12.4219 34.5312C12.5781 34.6094 12.8125 34.7656 13.125 34.8437V28.4375H12.5L12.4219 34.5312ZM11.1719 32.2656C11.1719 33.0469 11.4844 33.6719 11.7969 33.9844V28.4375H11.1719V32.2656Z" fill="#C8B100"/>
<path d="M13.6719 35H14.2969V28.4375H13.6719V35Z" fill="#C7B500"/>
<path d="M14.9219 34.8437C15.1563 34.7656 15.4687 34.6094 15.625 34.5312V28.4375H15L14.9219 34.8437Z" fill="#C8B100"/>
<path d="M11.1719 22.3438H16.7969V28.5937H11.1719V22.3438Z" fill="#ED4C5C"/>
<path d="M16.25 33.9844C16.5625 33.75 16.7969 33.2031 16.875 32.5781V28.5156H16.25V33.9844Z" fill="#C8B100"/>
<path d="M22.5 28.5937V32.3437C22.5 33.8281 21.25 34.9999 19.6875 34.9999C18.125 34.9999 16.875 33.8281 16.875 32.3437V28.5937H22.5ZM20.4688 23.4374C20.7031 23.9062 20.7031 25.0781 20 24.8437C20.1563 24.9218 20.2344 25.4687 20.4688 25.7812C20.8594 26.2499 21.3281 25.8593 21.25 25.3124C21.0938 24.4531 21.1719 23.9062 21.3281 23.0468C21.3281 23.1249 21.7188 23.1249 21.875 22.9687C21.7969 23.2031 21.7188 23.5156 21.875 23.5156C21.7188 23.7499 21.3281 24.1406 21.25 24.3749C21.1719 24.9218 22.0313 25.9374 21.0938 26.1718C20.4688 26.3281 20.8594 26.7968 21.0938 27.0312C21.0938 27.0312 20.7812 28.0468 20.9375 27.9687C20.3125 28.2031 20.4688 27.6562 20.4688 27.6562C20.7813 26.7187 19.9219 26.6406 20 26.4843C19.2188 26.4062 20.0781 27.1874 19.375 27.1874C19.2187 27.1874 18.9063 27.3437 18.9063 27.3437C18.0469 27.2656 18.5156 26.4843 18.8281 26.5624C19.0625 26.6406 19.2969 27.0312 19.2969 26.4843C19.2969 26.4843 18.9063 25.8593 19.9219 25.8593C19.5313 25.8593 19.2969 25.5468 19.1406 25.1562C18.9844 25.2343 18.75 25.6249 17.8906 25.7031C17.8906 25.7031 17.6562 24.8437 17.8906 24.9999C18.2031 25.1562 18.3594 25.1562 18.6719 24.8437C18.5156 24.6093 17.5781 24.2968 17.7344 23.7499C17.7344 23.5937 18.2031 23.3593 18.2031 23.3593C18.125 23.7499 18.3594 24.1406 18.8281 24.1406C19.4531 24.2187 19.2188 23.9843 19.2969 23.8281C19.375 23.6718 19.8438 23.9062 19.6875 23.5156C19.6875 23.4374 19.1406 23.3593 19.2969 23.1249C19.6094 22.7343 20.0781 23.0468 20.4688 23.4374ZM16.875 34.8437L16.7188 34.4531L16.875 33.9843L17.0312 34.4531L16.875 34.8437Z" fill="#ED4C5C"/>
<path d="M12.8906 23.6719V24.0625H13.0469V24.375H12.6563V25.1563H12.8906V26.875H12.4219V27.7344H15.625V26.875H15.2344V25.1563H15.3906V24.375H15V24.0625H15.2344V23.6719H14.4531V24.0625H14.6094V24.375H14.2188V23.4375H14.4531V23.0469H13.5938V23.4375H13.8281V24.375H13.4375V24.0625H13.5938V23.6719H12.8906ZM21.7187 33.2812V29.375H17.6563V33.2812L19.5313 34.1406H19.7656L21.7187 33.2812ZM19.5313 29.6875V31.0156L18.2031 29.6875H19.5313ZM17.8906 29.7656L19.4531 31.3281L17.8906 32.8906V29.7656ZM18.0469 33.2031L19.5313 31.7187V33.9063L18.0469 33.2031ZM19.7656 33.8281V31.6406L21.25 33.125L19.7656 33.8281ZM21.4062 32.8906L19.8438 31.3281L21.4062 29.7656V32.8906ZM19.7656 29.6875H21.0938L19.7656 31.0156V29.6875Z" fill="#C8B100"/>
<path d="M15 28.5156C15 27.3437 15.7812 26.4844 16.7969 26.4844C17.8125 26.4844 18.5937 27.4219 18.5937 28.5156C18.5937 29.6094 17.8125 30.5469 16.7969 30.5469C15.7812 30.5469 15 29.6875 15 28.5156Z" fill="#ED4C5C"/>
<path d="M15.5469 28.5156C15.5469 27.6563 16.0938 27.0312 16.7969 27.0312C17.5 27.0312 18.0469 27.7344 18.0469 28.5156C18.0469 29.375 17.5 30 16.7969 30C16.1719 30.0781 15.5469 29.375 15.5469 28.5156Z" fill="#005BBF"/>
<path d="M16.25 27.5L15.9375 28.3594L16.1719 28.4375L16.0156 28.75H16.4844L16.3281 28.4375L16.5625 28.3594L16.25 27.5ZM17.4219 27.5L17.1094 28.3594L17.3438 28.4375L17.1875 28.75H17.6563L17.5781 28.4375L17.8125 28.3594L17.4219 27.5ZM16.875 28.5156L16.4844 29.375L16.7188 29.4531L16.6406 29.7656H17.0312L16.9531 29.4531L17.1875 29.375L16.875 28.5156Z" fill="#C8B100"/>
</svg>
